# xmcd
#
# Track frame offsets:
#  150
#  30370
#  55555
#  86363
#  115057
#  145822
#
# Disc length: 2292 seconds
#
# Revision: 0
# Processed by: cddbd v1.5.1PL2 Copyright (c) Steve Scherf et al.
# Submitted via: Collectorz.com_Music_Collector 6.9
#
DISCID=3c08f206
DTITLE=Bob James - Heads
DYEAR=1977
DGENRE=Jazz
TTITLE0=Heads
TTITLE1=We're All Alone
TTITLE2=I'm In You
TTITLE3=Night Crawler
TTITLE4=You Are So Beautifull
TTITLE5=One Loving Night
EXTD=
EXTT0=
EXTT1=
EXTT2=
EXTT3=
EXTT4=
EXTT5=
PLAYORDER=
